<?xml version="1.0" encoding="utf-8"?>
<!-- Generator: Adobe Illustrator 26.0.1, SVG Export Plug-In . SVG Version: 6.00 Build 0)  -->
<svg version="1.1" id="Ñëîé_1" xmlns="http://www.w3.org/2000/svg" xmlns:xlink="http://www.w3.org/1999/xlink" x="0px" y="0px"
	 viewBox="0 0 800 800" style="enable-background:new 0 0 800 800;" xml:space="preserve">
<style type="text/css">
	.st0{fill:#FFFFFF;}
</style>
<g>
	<circle cx="400" cy="400" r="400"/>
	<g>
		<g>
			<path class="st0" d="M509,409.6H291V295.2c0-60.1,48.9-109,109-109c60.1,0,109,48.9,109,109L509,409.6L509,409.6z M333.1,367.5
				h133.8v-72.4c0-36.9-30-66.9-66.9-66.9c-36.9,0-66.9,30-66.9,66.9L333.1,367.5L333.1,367.5z"/>
		</g>
		<path class="st0" d="M529.2,362.2H270.8c-11.1,0-20.1,9-20.1,20.1v211.4c0,11.1,9,20.1,20.1,20.1h258.4c11.1,0,20.1-9,20.1-20.1
			V382.3C549.3,371.2,540.3,362.2,529.2,362.2z M414.3,485.5v65.9h-28.6v-65.9c-10.5-5.3-17.7-16.1-17.7-28.7c0-17.7,14.3-32,32-32
			c17.7,0,32,14.3,32,32C432,469.3,424.8,480.2,414.3,485.5z"/>
	</g>
</g>
</svg>
