<svg id="圖層_1" data-name="圖層 1" xmlns="http://www.w3.org/2000/svg" xmlns:xlink="http://www.w3.org/1999/xlink" viewBox="0 0 300 220"><defs><style>.cls-1{fill:#d6dce8;}.cls-2{fill:url(#linear-gradient);}.cls-3{fill:url(#linear-gradient-2);}.cls-4{fill:#989fb0;}.cls-5{fill:#aab2c5;}.cls-6{fill:url(#linear-gradient-3);}.cls-7{fill:url(#linear-gradient-4);}.cls-8{fill:url(#linear-gradient-5);}.cls-9{fill:url(#linear-gradient-6);}.cls-10{fill:url(#linear-gradient-7);}</style><linearGradient id="linear-gradient" x1="200.61" y1="100.37" x2="210.36" y2="267.37" gradientUnits="userSpaceOnUse"><stop offset="0" stop-color="#d6dce8"/><stop offset="1" stop-color="#fff"/></linearGradient><linearGradient id="linear-gradient-2" x1="106.59" y1="86.44" x2="100.35" y2="295.14" xlink:href="#linear-gradient"/><linearGradient id="linear-gradient-3" x1="154.12" y1="48.76" x2="297.65" y2="48.76" gradientUnits="userSpaceOnUse"><stop offset="0" stop-color="#989fb0"/><stop offset="1" stop-color="#aab2c5"/></linearGradient><linearGradient id="linear-gradient-4" x1="255.28" y1="16.6" x2="207.05" y2="74.13" xlink:href="#linear-gradient"/><linearGradient id="linear-gradient-5" x1="48.58" y1="8.35" x2="101.82" y2="76.59" xlink:href="#linear-gradient"/><linearGradient id="linear-gradient-6" x1="204.02" y1="83.41" x2="247.5" y2="141.01" xlink:href="#linear-gradient"/><linearGradient id="linear-gradient-7" x1="113.72" y1="87.47" x2="40.44" y2="145.87" xlink:href="#linear-gradient"/></defs><path class="cls-1" d="M285.42,195a4.77,4.77,0,1,0,4.59,5A4.8,4.8,0,0,0,285.42,195Z"/><path class="cls-1" d="M260.82,0A7.5,7.5,0,1,0,268,7.85,7.52,7.52,0,0,0,260.82,0Z"/><path class="cls-1" d="M10.34,165.65a7.5,7.5,0,1,0,10.43-2.12A7.52,7.52,0,0,0,10.34,165.65Z"/><path class="cls-1" d="M1.75,149.38A4.78,4.78,0,1,0,8.4,148,4.8,4.8,0,0,0,1.75,149.38Z"/><path class="cls-2" d="M154.12,114.86V220l98-29.35a5.07,5.07,0,0,0,3.61-5L253.05,82.51Z"/><path class="cls-3" d="M154.12,114.86V220l-98-29.35a5.07,5.07,0,0,1-3.61-5L55.18,82.51Z"/><polygon class="cls-4" points="55.26 82.44 154.14 51.79 154.14 114.94 55.26 82.44"/><polygon class="cls-5" points="253.02 82.44 154.14 51.79 154.14 114.94 253.02 82.44"/><path class="cls-6" d="M154.12,51.86l46.72-36.1a3.6,3.6,0,0,1,3.39-.56l91,31.53a3.61,3.61,0,0,1,.86,6.4l-43,29.38Z"/><path class="cls-7" d="M154.12,51.86l46.72-36.1a3.6,3.6,0,0,1,3.39-.56l91,31.53a3.61,3.61,0,0,1,.86,6.4l-43,29.38Z"/><path class="cls-8" d="M154.12,51.86l-46.73-36.1A3.59,3.59,0,0,0,104,15.2L13,46.73a3.62,3.62,0,0,0-.85,6.4l43,29.38Z"/><path class="cls-9" d="M154.12,114.86l47.23,31.67a3.59,3.59,0,0,0,3.15.43l92.05-30.61a3.61,3.61,0,0,0,.76-6.5L253.05,82.51Z"/><path class="cls-10" d="M154.12,114.86l-47.24,31.67a3.59,3.59,0,0,1-3.15.43L11.68,116.35a3.61,3.61,0,0,1-.76-6.5L55.18,82.51Z"/></svg>