<svg id="圖層_1" data-name="圖層 1" xmlns="http://www.w3.org/2000/svg" viewBox="0 0 970 260"><defs><style>.cls-1{fill:#283250;}.cls-2{fill:#ff3250;}</style></defs><path class="cls-1" d="M249,241.83h44.31v5H249Zm.29-24.73h20.94v5.05H249.32Zm.88,16.62h15.93v4.9H250.2Zm0-7.68H292v4.76H250.24Zm1.61,23.27h38.28v4.76H251.85Zm4.42-17.63h5.39V241h-5.39Zm3.4-17.4h5.68v10.64h-5.68ZM268,227.89h5.79v32H268Zm3.84-10.79H292.8v5.05H271.86Zm3.89,16.37h15.93v4.91H275.75Zm.78-19.19h5.68v10.64h-5.68Zm3.93,17.4h5.39V241h-5.39Z"/><path class="cls-1" d="M350.76,238.43h5.39v4.27a31.18,31.18,0,0,1-.58,5.74,21.48,21.48,0,0,1-2.14,6.07,16.86,16.86,0,0,1-4.47,5.3,8.57,8.57,0,0,0-1.09-1.39q-.75-.8-1.56-1.53a16.56,16.56,0,0,0-1.33-1.12,14,14,0,0,0,3.76-4.27,14.63,14.63,0,0,0,1.63-4.59,25.9,25.9,0,0,0,.39-4.3Zm-4.62-3.11h22.74v5.39H346.14Zm1.22-18.9h41.88v9.52h-6v-4.17H353v4.17h-5.68Zm2.28,9.28H367v5.39H349.64Zm10.06,13.17h5.44v13.06a2.49,2.49,0,0,0,.31,1.39,1.94,1.94,0,0,0,1.34.63,19,19,0,0,0,3,.17H382a5.67,5.67,0,0,0,2.55-.44,2.65,2.65,0,0,0,1.21-1.79,24.14,24.14,0,0,0,.56-4.13,9.31,9.31,0,0,0,2.45,1.21,20.87,20.87,0,0,0,2.7.78,21.31,21.31,0,0,1-1.31,5.8,5.13,5.13,0,0,1-2.72,2.82,13.36,13.36,0,0,1-5.2.8H369.56a22.39,22.39,0,0,1-6-.63,4.69,4.69,0,0,1-3-2.21,9.34,9.34,0,0,1-.85-4.4Zm9-9.33h21.57v5.2H368.69Zm.82,8.36,4.52-1.85a26.66,26.66,0,0,1,2.36,3.72,21.11,21.11,0,0,1,1.57,3.66l-4.76,2.14a13.41,13.41,0,0,0-.82-2.4c-.39-.89-.84-1.8-1.34-2.72A29.62,29.62,0,0,0,369.51,237.9Zm10.25-13.07h5.49V246.3a8.25,8.25,0,0,1-.44,3,3.26,3.26,0,0,1-1.74,1.75,9.23,9.23,0,0,1-3,.75,32.45,32.45,0,0,1-4.11.12,12.67,12.67,0,0,0-.65-2.52,17.4,17.4,0,0,0-1.1-2.53l2.87.08,1.85,0a1.28,1.28,0,0,0,.65-.19.8.8,0,0,0,.17-.59Z"/><path class="cls-1" d="M442.38,239q3.12-.63,7.29-1.65l8.41-2,.77,5.3q-3.84,1.06-7.77,2.11t-7.19,1.87Zm.63-15.4h16.67V229H443Zm5.84-9.28h5.68v39.11a9.5,9.5,0,0,1-.46,3.28,3.37,3.37,0,0,1-1.73,1.82,8.71,8.71,0,0,1-3,.85,36.57,36.57,0,0,1-4.42.22,13.23,13.23,0,0,0-.58-2.65,22.25,22.25,0,0,0-1-2.64c1,0,1.9,0,2.79,0h1.77a1.09,1.09,0,0,0,.76-.22,1,1,0,0,0,.22-.71Zm30.7,21.14h1.12l1-.25,3.79,1.56a34,34,0,0,1-4.11,9,28.58,28.58,0,0,1-6,6.58,34.39,34.39,0,0,1-7.6,4.61,51.46,51.46,0,0,1-9,3,13,13,0,0,0-.73-1.82q-.5-1-1-1.92a14.26,14.26,0,0,0-1.09-1.6,43.93,43.93,0,0,0,8.19-2.26,28.8,28.8,0,0,0,6.87-3.77,24.48,24.48,0,0,0,5.27-5.34,22.32,22.32,0,0,0,3.33-7Zm-15.94-19.53h5.45v5.44a20.9,20.9,0,0,1-.61,4.88,12.42,12.42,0,0,1-2.36,4.74,14,14,0,0,1-5,3.84A12.92,12.92,0,0,0,460,233.4c-.49-.57-1-1.12-1.48-1.65a7.78,7.78,0,0,0-1.34-1.19,12.62,12.62,0,0,0,4.3-2.87,7.39,7.39,0,0,0,1.78-3.23,15.19,15.19,0,0,0,.38-3.33Zm-4.17,19.53h22.05v5.39H459.44Zm6.07,4.32a25.11,25.11,0,0,0,5.22,6.78,29.1,29.1,0,0,0,7.68,5,42.16,42.16,0,0,0,9.93,3.06,12.37,12.37,0,0,0-1.33,1.6c-.47.65-.91,1.31-1.32,2s-.75,1.28-1,1.8a36.65,36.65,0,0,1-14.6-6.66,34.78,34.78,0,0,1-9.59-11.85Zm-.68-23.85H478v5.39H464.83Zm10.49,0h5.54v10.64A5.17,5.17,0,0,0,481,228a.63.63,0,0,0,.68.44h2.67c.39,0,.85,0,1.38-.07a6.54,6.54,0,0,0,1.29-.22c.07.71.13,1.52.19,2.43s.15,1.7.25,2.38a4.52,4.52,0,0,1-1.39.31c-.53,0-1.09.08-1.67.08h-3.26a7.56,7.56,0,0,1-3.69-.73,3.66,3.66,0,0,1-1.7-2.26,14.83,14.83,0,0,1-.44-4Z"/><path class="cls-1" d="M542.12,217.83h4.81v14.82q0,2.86-.12,6.31c-.08,2.3-.24,4.67-.46,7.1a71,71,0,0,1-1,7.06,38.33,38.33,0,0,1-1.8,6.3,6.44,6.44,0,0,0-1.24-.83c-.53-.29-1.08-.58-1.63-.85a10.43,10.43,0,0,0-1.45-.61,33.24,33.24,0,0,0,1.6-5.83c.39-2.1.68-4.25.87-6.43s.32-4.33.37-6.42.07-4,.07-5.8Zm17.2-2.82,4.23,3.84a56,56,0,0,1-6.17,1.43q-3.4.61-6.93,1t-6.82.66a12.41,12.41,0,0,0-.59-2.11,13,13,0,0,0-.87-2c2.07-.19,4.17-.43,6.29-.7s4.13-.59,6-.95A43.05,43.05,0,0,0,559.32,215Zm-15.16,8.12H563.3v11.36H544.16v-4.37h14v-2.67h-14Zm5.59,11.12,4,1.07a36.9,36.9,0,0,1-2.79,6.8,28,28,0,0,1-3.81,5.64,10.07,10.07,0,0,0-.66-1.17c-.31-.48-.62-1-1-1.46a10.53,10.53,0,0,0-.87-1.16,20.67,20.67,0,0,0,3-4.37A28.21,28.21,0,0,0,549.75,234.25Zm2.48,3.94h11.46v3.59H552.23v17.68H548V241.68l3.06-3.49Zm-2,5.34h13v3.16h-13Zm0,4.91h13.06v3.25H550.19Zm.09,5h13.8v3.79h-13.8Zm3.84-18,3.89-.93c.39.72.77,1.51,1.16,2.38a13.65,13.65,0,0,1,.83,2.34l-4.08,1.16a25,25,0,0,0-.73-2.4A20.16,20.16,0,0,0,554.12,235.47Zm1.26,4.56h3.79v15.55h-3.79Zm14.29,10.4,4.56,2.77a28.1,28.1,0,0,1-3.79,3.76,26.16,26.16,0,0,1-4.37,3,21.12,21.12,0,0,0-1.72-1.73c-.73-.66-1.39-1.22-2-1.67a21.83,21.83,0,0,0,2.74-1.77,28,28,0,0,0,2.58-2.19A17.34,17.34,0,0,0,569.67,250.43Zm-5.15-34.15h20.26v4.85H564.52Zm1.07,8h18v25.65h-18Zm4.76,4.38v2.91h8.31v-2.91Zm0,7v2.92h8.31v-2.92Zm0,7v2.91h8.31v-2.91ZM571.9,219l6.07.68c-.38,1.46-.79,2.9-1.21,4.32s-.81,2.66-1.17,3.69l-4.61-.82c.23-1.17.43-2.48.61-3.94S571.87,220.11,571.9,219Zm3.6,34.15,4.17-2.57q1.56,1.35,3.26,3.11a30.7,30.7,0,0,1,2.67,3.06l-4.42,2.91a15.45,15.45,0,0,0-1.48-2q-.94-1.11-2.07-2.31T575.5,253.1Z"/><path class="cls-1" d="M637.83,244.26v-5.15h13.26v5.15Z"/><path class="cls-1" d="M729.92,254.16a20.73,20.73,0,0,1-9.56,2q-7.4,0-11.86-4.68T704,239.21q0-8.16,5-13.19a17.17,17.17,0,0,1,12.68-5,20.79,20.79,0,0,1,8.18,1.4V228a14.59,14.59,0,0,0-7.59-2,11.89,11.89,0,0,0-9,3.54q-3.43,3.52-3.43,9.44a12.4,12.4,0,0,0,3.2,8.95,11.15,11.15,0,0,0,8.42,3.33,15,15,0,0,0,8.35-2.27Z"/><path class="cls-1" d="M755.86,255.58h-5.53v-36h5.53Z"/><path class="cls-1" d="M780.37,226.19a3.28,3.28,0,0,1-2.31-.88,2.88,2.88,0,0,1-1-2.23,3,3,0,0,1,1-2.25,3.26,3.26,0,0,1,2.31-.9,3.37,3.37,0,0,1,2.38.9,3,3,0,0,1,0,4.45A3.38,3.38,0,0,1,780.37,226.19Zm2.73,29.39h-5.5V231.29h5.5Z"/><path class="cls-1" d="M822.25,254.46a13.49,13.49,0,0,1-6.9,1.69,11.69,11.69,0,0,1-8.73-3.38A12,12,0,0,1,803.3,244a13.18,13.18,0,0,1,3.57-9.64,12.75,12.75,0,0,1,9.55-3.64,14,14,0,0,1,5.85,1.16V237a8.88,8.88,0,0,0-5.4-1.89,7.5,7.5,0,0,0-5.72,2.36,8.6,8.6,0,0,0-2.23,6.18,8.22,8.22,0,0,0,2.1,5.95,7.43,7.43,0,0,0,5.63,2.18,8.78,8.78,0,0,0,5.6-2.11Z"/><path class="cls-1" d="M864.32,255.58h-7l-9.44-11.67h-.09v11.67h-5.53v-36h5.53v22.79h.09l8.92-11.12h6.62l-10,11.72Z"/><path class="cls-1" d="M909.52,253.25a24.34,24.34,0,0,1-11.84,2.9q-7.54,0-12.22-4.7T880.79,239a17.45,17.45,0,0,1,5.11-13,17.68,17.68,0,0,1,13-5.07,24.34,24.34,0,0,1,9.54,1.66v5.82a16.43,16.43,0,0,0-9.33-2.61,11.84,11.84,0,0,0-8.9,3.58,12.75,12.75,0,0,0-3.48,9.27q0,5.86,3,9.22a10.31,10.31,0,0,0,8.11,3.36,12.9,12.9,0,0,0,6.08-1.36v-8.09h-7.17V237.1h12.79Z"/><path class="cls-1" d="M941.57,256.15a12,12,0,0,1-9-3.41,12.27,12.27,0,0,1-3.36-9q0-6.12,3.5-9.56t9.43-3.44q5.69,0,8.87,3.34t3.18,9.28a12.71,12.71,0,0,1-3.43,9.31A12.34,12.34,0,0,1,941.57,256.15Zm.27-21a6.26,6.26,0,0,0-5.1,2.25,9.45,9.45,0,0,0-1.88,6.22,8.86,8.86,0,0,0,1.9,6,6.38,6.38,0,0,0,5.08,2.19,6,6,0,0,0,5-2.16,9.53,9.53,0,0,0,1.74-6.14,9.71,9.71,0,0,0-1.74-6.19A6,6,0,0,0,941.84,235.11Z"/><path class="cls-1" d="M191.26,245.48a8.35,8.35,0,0,1-7.76,6.65H12.24a4.38,4.38,0,0,1-3.43-1.44A4.61,4.61,0,0,1,8,246.85l10.88-61.74q-2.05-.78-4.14-1.74c-1.1-.52-2.19-1.08-3.25-1.69L.21,245.48a12.51,12.51,0,0,0,2.57,10.27A12.13,12.13,0,0,0,12.24,260H183.5A16.21,16.21,0,0,0,199,246.85l23.48-133.16-7-5.73Z"/><path class="cls-1" d="M19.63,150.85a8.65,8.65,0,0,0,2.21,1.74,15,15,0,0,0,2.55,1.12l13.5-76.56a8.35,8.35,0,0,1,7.76-6.64h92.87c3.92-2.38,7.89-5,11.85-7.87H45.65A16.2,16.2,0,0,0,30.13,75.79l-12.33,70a13.49,13.49,0,0,0,.5,2.45A8,8,0,0,0,19.63,150.85Z"/><circle class="cls-2" cx="72.55" cy="111.22" r="30.07"/><path class="cls-1" d="M71.2,234.74l8.33-47.23c-2.06.37-4.11.7-6.17,1a155.42,155.42,0,0,1-22.07,1.67,121.19,121.19,0,0,1-16-1L34.17,189l-8.08,45.78Z"/><path class="cls-1" d="M124.18,234.74l11.66-66.09a223.12,223.12,0,0,1-26.53,11.08,195.69,195.69,0,0,1-21.62,6.15l-8.63,48.86Z"/><path class="cls-1" d="M177.17,234.74l19.45-110.36a223.76,223.76,0,0,1-22.18,19.93,222,222,0,0,1-29.93,19.79l-12.46,70.64Z"/><path class="cls-2" d="M138.18,79.55l25.06-.15A173.56,173.56,0,0,1,142,107.77a183.7,183.7,0,0,1-47.21,36.92,170.4,170.4,0,0,1-27.91,12.2,110.4,110.4,0,0,1-29.37,5.78c-.9,0-1.8.06-2.69.06a44.46,44.46,0,0,1-11.08-1.25,23.88,23.88,0,0,1-5.6-2.22,16.14,16.14,0,0,1-4.34-3.5A15.31,15.31,0,0,1,11,150.48a27.21,27.21,0,0,1-1-7,60.54,60.54,0,0,1,2.25-15.95,35.75,35.75,0,0,0-5.52,6.64,37.94,37.94,0,0,0-4.05,8,29.09,29.09,0,0,0-1.84,9.4,24.5,24.5,0,0,0,2,10.34,26.44,26.44,0,0,0,6.42,8.82,35.08,35.08,0,0,0,4.19,3.25,36.17,36.17,0,0,0,4.53,2.5,64.61,64.61,0,0,0,18.42,5.11,111.1,111.1,0,0,0,14.94,1,149.91,149.91,0,0,0,21-1.59,186.4,186.4,0,0,0,34.52-8.42,216.47,216.47,0,0,0,62.89-34.24A217.17,217.17,0,0,0,211.55,94.8l23.06,19c-11.46-29-17-71.18-17.48-103.76C196.24,35,165.35,64.26,138.18,79.55Z"/><path class="cls-1" d="M364.64,125.63,378.56,46.7H268.1L249,154.83H349ZM324.39,133H292.23L303.61,68.5h32.17Z"/><polygon class="cls-1" points="452.94 29.35 464.26 8.19 267.48 8.19 263.75 29.34 399.82 29.34 374.82 171.13 328.05 171.13 336.65 192.5 400.94 192.5 416.33 163.72 440.02 29.34 441.74 29.34 441.74 29.35 452.94 29.35"/><polygon class="cls-1" points="531.02 182.89 556.12 182.89 565.63 83.15 540.31 83.15 531.02 182.89"/><polygon class="cls-1" points="470.03 83.15 443.72 182.89 468.81 182.89 495.13 83.15 470.03 83.15"/><polygon class="cls-1" points="570.27 73.11 581.46 52.16 542.06 52.16 546.11 29.25 576.2 29.25 591.83 0 549.49 0 544.58 8.07 488.68 8.07 477.36 29.25 508.13 29.25 504.09 52.16 476.04 52.16 464.83 73.11 500.39 73.11 479.35 192.49 517.32 192.49 538.37 73.11 570.27 73.11"/><polygon class="cls-1" points="629.83 0 599.7 170.89 566.09 170.89 571.44 192.48 634.73 192.48 663.52 29.25 663.53 29.25 679.17 0 629.83 0"/><polygon class="cls-1" points="567.96 152.33 595.77 152.33 595.8 152.12 619.55 17.46 591.75 17.46 567.96 152.33"/><polygon class="cls-2" points="887.18 126.63 893.17 126.63 897.02 104.84 891.02 104.84 887.18 126.63"/><polygon class="cls-2" points="899.28 161.71 905.17 161.71 909.64 136.33 903.75 136.33 899.28 161.71"/><path class="cls-2" d="M858.21,73.25,842.31,103,826.52,192.5H938.25l16-29.87L970,73.25Zm77.69,31.59H909.23l-3.84,21.79h26.67L924.2,171.2H897.53l-.92,5.2H884.33l.92-5.2H860.38l-2.13-9.49h28.67l4.48-25.39H864.63L871.91,95h26.77l1-5.69H912L911,95h26.67Z"/><polygon class="cls-2" points="749.52 116.84 781.11 116.84 771.59 170.89 708.59 170.89 729.59 51.79 834.26 51.79 846.14 29.59 700.71 29.59 685.61 57.86 661.86 192.5 800.03 192.5 815.29 163.97 827.34 95.67 753.25 95.67 749.52 116.84"/></svg>