<svg id="圖層_1" data-name="圖層 1" xmlns="http://www.w3.org/2000/svg" viewBox="0 0 200 200"><defs><style>.cls-1{fill:#fff;}.cls-2{fill:#283250;}.cls-3{fill:#ff3250;}</style></defs><circle class="cls-1" cx="100" cy="100" r="100"/><path class="cls-2" d="M141.86,158.44a4.71,4.71,0,0,1-4.39,3.76H40.52a2.43,2.43,0,0,1-1.93-.82,2.58,2.58,0,0,1-.48-2.17l6.16-34.95c-.78-.29-1.56-.62-2.35-1-.62-.3-1.23-.62-1.84-1l-6.36,36.12a7.08,7.08,0,0,0,1.45,5.81,6.83,6.83,0,0,0,5.35,2.4h96.95a9.16,9.16,0,0,0,8.78-7.44l13.3-75.38-4-3.25Z"/><path class="cls-2" d="M44.71,104.86a4.92,4.92,0,0,0,1.25,1,8.48,8.48,0,0,0,1.44.63L55,63.15a4.74,4.74,0,0,1,4.4-3.76H112c2.22-1.35,4.47-2.85,6.71-4.46H59.44a9.18,9.18,0,0,0-8.79,7.44l-7,39.61a7.21,7.21,0,0,0,.29,1.38A4.39,4.39,0,0,0,44.71,104.86Z"/><circle class="cls-3" cx="74.67" cy="82.43" r="17.02"/><path class="cls-2" d="M73.9,152.35l4.72-26.73c-1.17.2-2.33.39-3.5.56a87.82,87.82,0,0,1-12.49.94,68.72,68.72,0,0,1-9.06-.59l-.63-.09-4.58,25.91Z"/><path class="cls-2" d="M103.89,152.35l6.6-37.41a126,126,0,0,1-15,6.27,111.71,111.71,0,0,1-12.24,3.48l-4.89,27.66Z"/><path class="cls-2" d="M133.89,152.35l11-62.47a127.69,127.69,0,0,1-12.56,11.28,125.74,125.74,0,0,1-16.94,11.21l-7.05,40Z"/><path class="cls-3" d="M111.82,64.5,126,64.42a98.22,98.22,0,0,1-12,16.06,104.16,104.16,0,0,1-26.72,20.9,97.34,97.34,0,0,1-15.81,6.91,62.69,62.69,0,0,1-16.62,3.27l-1.52,0a25,25,0,0,1-6.27-.71,13.51,13.51,0,0,1-3.18-1.25,9.31,9.31,0,0,1-2.45-2,8.73,8.73,0,0,1-1.58-3,15.18,15.18,0,0,1-.58-4,34.53,34.53,0,0,1,1.27-9,20.59,20.59,0,0,0-3.12,3.76,21.47,21.47,0,0,0-2.29,4.51,16.61,16.61,0,0,0-1.05,5.32,14,14,0,0,0,1.13,5.86,14.93,14.93,0,0,0,3.63,5,19.8,19.8,0,0,0,2.37,1.84,20.9,20.9,0,0,0,2.57,1.41,36.59,36.59,0,0,0,10.42,2.9,63.9,63.9,0,0,0,8.46.55,85.72,85.72,0,0,0,11.9-.9,105.94,105.94,0,0,0,19.54-4.77,122.31,122.31,0,0,0,35.6-19.38,122.93,122.93,0,0,0,23.68-24.61L166.4,83.87c-6.48-16.42-9.62-40.3-9.89-58.74C144.69,39.28,127.2,55.85,111.82,64.5Z"/></svg>