<svg id="圖層_1" data-name="圖層 1" xmlns="http://www.w3.org/2000/svg" viewBox="0 0 960 220"><defs><style>.cls-1{fill:#283250;}.cls-2{fill:#ff3250;}</style></defs><path class="cls-1" d="M340.45,151.48,354.7,70.7H241.64L222.13,181.37H324.47Zm-41.19,7.58H266.34L278,93h32.92Z"/><polygon class="cls-1" points="430.82 52.95 442.4 31.29 241.01 31.29 237.19 52.94 376.45 52.94 350.87 198.05 303 198.05 311.8 219.91 377.6 219.91 393.35 190.47 417.6 52.94 419.36 52.94 419.36 52.95 430.82 52.95"/><polygon class="cls-1" points="510.73 210.08 536.41 210.08 546.15 108.01 520.24 108.01 510.73 210.08"/><polygon class="cls-1" points="448.31 108.01 421.38 210.08 447.06 210.08 474 108.01 448.31 108.01"/><polygon class="cls-1" points="550.89 97.73 562.35 76.29 522.03 76.29 526.17 52.84 556.97 52.84 572.96 22.91 529.63 22.91 524.6 31.17 467.4 31.17 455.81 52.84 487.3 52.84 483.17 76.29 454.46 76.29 442.99 97.73 479.38 97.73 457.85 219.91 496.7 219.91 518.25 97.73 550.89 97.73"/><polygon class="cls-1" points="611.86 22.91 581.02 197.8 546.62 197.8 552.1 219.9 616.87 219.9 646.34 52.84 646.34 52.84 662.35 22.91 611.86 22.91"/><polygon class="cls-1" points="548.54 178.81 577 178.81 577.03 178.59 601.33 40.77 572.88 40.77 548.54 178.81"/><polygon class="cls-2" points="875.24 152.5 881.37 152.5 885.31 130.2 879.17 130.2 875.24 152.5"/><polygon class="cls-2" points="887.62 188.41 893.65 188.41 898.23 162.43 892.2 162.43 887.62 188.41"/><path class="cls-2" d="M845.59,97.87,829.31,128.3l-16.15,91.62H927.5l16.35-30.57L960,97.87ZM925.1,130.2H897.81l-3.93,22.3h27.29l-8,45.62h-27.3l-.94,5.32H872.32l.94-5.32H847.81l-2.18-9.71H875l4.58-26h-27.4l7.45-42.24H887l1-5.83H900.6l-1,5.83h27.29Z"/><polygon class="cls-2" points="734.35 142.49 766.68 142.49 756.94 197.81 692.46 197.81 713.96 75.91 821.07 75.91 833.23 53.19 684.4 53.19 668.94 82.13 644.64 219.92 786.05 219.92 801.66 190.72 814 120.82 738.17 120.82 734.35 142.49"/><path class="cls-1" d="M168.31,207.23a7.34,7.34,0,0,1-6.83,5.84H10.77a3.83,3.83,0,0,1-3-1.26A4.07,4.07,0,0,1,7,208.43l9.58-54.34c-1.2-.45-2.43-1-3.65-1.52-1-.46-1.92-.95-2.85-1.49L.19,207.23a11,11,0,0,0,2.26,9A10.64,10.64,0,0,0,10.77,220H161.48a14.25,14.25,0,0,0,13.65-11.57L195.79,91.25l-6.14-5Z"/><path class="cls-1" d="M17.27,124a7.74,7.74,0,0,0,1.95,1.53,13.09,13.09,0,0,0,2.25,1L33.34,59.09a7.35,7.35,0,0,1,6.83-5.84h81.72c3.46-2.1,7-4.43,10.44-6.93H40.17A14.27,14.27,0,0,0,26.51,57.89L15.66,119.46a12.57,12.57,0,0,0,.44,2.16A7.16,7.16,0,0,0,17.27,124Z"/><circle class="cls-2" cx="63.85" cy="89.07" r="26.46"/><path class="cls-1" d="M62.66,197.77,70,156.21q-2.71.48-5.43.87a137.41,137.41,0,0,1-19.42,1.47,106.21,106.21,0,0,1-14.09-.92l-1-.15L23,197.77Z"/><path class="cls-1" d="M109.28,197.77l10.26-58.16a196,196,0,0,1-23.34,9.75,171.88,171.88,0,0,1-19,5.41l-7.59,43Z"/><path class="cls-1" d="M155.91,197.77,173,100.65a196.3,196.3,0,0,1-19.52,17.54,196.14,196.14,0,0,1-26.34,17.42l-11,62.16Z"/><path class="cls-2" d="M121.6,61.2l22.05-.13A153.69,153.69,0,0,1,125,86,161.67,161.67,0,0,1,83.4,118.52a149.84,149.84,0,0,1-24.57,10.75A97,97,0,0,1,33,134.35c-.79,0-1.58.05-2.36.05a38.78,38.78,0,0,1-9.75-1.1,20.69,20.69,0,0,1-4.94-2,14.37,14.37,0,0,1-3.82-3.08,13.77,13.77,0,0,1-2.44-4.65,23.57,23.57,0,0,1-.9-6.16,53.24,53.24,0,0,1,2-14,31.83,31.83,0,0,0-4.85,5.85,33,33,0,0,0-3.56,7,25.66,25.66,0,0,0-1.63,8.27,21.51,21.51,0,0,0,1.75,9.1,23.36,23.36,0,0,0,5.64,7.76,31.41,31.41,0,0,0,3.69,2.86,31.3,31.3,0,0,0,4,2.19A56.64,56.64,0,0,0,32,151a99.42,99.42,0,0,0,13.15.86,132.33,132.33,0,0,0,18.5-1.4A164.46,164.46,0,0,0,94,143a190.62,190.62,0,0,0,55.34-30.13,190.76,190.76,0,0,0,36.81-38.27l20.29,16.69c-10.08-25.52-15-62.64-15.38-91.31C172.69,22,145.5,47.75,121.6,61.2Z"/></svg>