<svg id="圖層_1" data-name="圖層 1" xmlns="http://www.w3.org/2000/svg" viewBox="0 0 1270 220"><defs><style>.cls-1{fill:#283250;}.cls-2{fill:#ff3250;}</style></defs><path class="cls-1" d="M984,134.92h59.91V143H984Zm.26-33.51h28.49v8.22H984.29Zm1.24,22.69h21.19V132H985.53Zm.13-10.24h56.39v7.69H985.66Zm2.48,31.23h51.1v7.69h-51.1ZM993,122.34h8.73v11.73H993Zm4.63-24.12h9.25v14.4h-9.25Zm11.21,18.71h9.38v43.15h-9.38Zm5.93-15.52h28.49v8.22H1014.8Zm5.54-3.19h9.26v14.4h-9.26Zm.06,25.49h21.19v7.88H1020.4Zm5.35-1.37h8.73v11.73h-8.73Z"/><path class="cls-1" d="M1064.27,131.53H1073v5.21a44.54,44.54,0,0,1-.75,7.79,29.2,29.2,0,0,1-2.8,8.22,22.31,22.31,0,0,1-5.9,7.13,15.64,15.64,0,0,0-1.83-2.21c-.82-.87-1.67-1.71-2.54-2.51a22.33,22.33,0,0,0-2.15-1.8,17,17,0,0,0,4.79-5.47,19.16,19.16,0,0,0,2-5.87,36.16,36.16,0,0,0,.45-5.47Zm-5.47-5.22h30.83v8.74H1058.8Zm1.63-25.48h56.84v13.68h-9.78v-5h-37.81v5h-9.25Zm3.13,12.58h23.53v8.67h-23.53Zm13,18.83h8.8V148a3.32,3.32,0,0,0,.42,1.86,2.51,2.51,0,0,0,1.76.81,30,30,0,0,0,4,.2h14.8a8.12,8.12,0,0,0,3.42-.56,3.39,3.39,0,0,0,1.63-2.34,29.76,29.76,0,0,0,.75-5.38,17,17,0,0,0,4,1.92,34.21,34.21,0,0,0,4.3,1.27,28.32,28.32,0,0,1-2,8.15,7.55,7.55,0,0,1-4,4,20.41,20.41,0,0,1-7.53,1.11H1091a31.28,31.28,0,0,1-8.83-1,6.94,6.94,0,0,1-4.4-3.36,14.45,14.45,0,0,1-1.24-6.62Zm12.84-14h29.07v8.41h-29.07Zm.46,12.19,7.3-3a36,36,0,0,1,2.93,4.66,28.81,28.81,0,0,1,2,4.6l-7.69,3.45a20.92,20.92,0,0,0-1-3.06c-.48-1.13-1-2.28-1.63-3.46A32.39,32.39,0,0,0,1089.83,130.42ZM1103.19,113h8.87v26.73a13.67,13.67,0,0,1-.66,4.69,5,5,0,0,1-2.6,2.74,12.35,12.35,0,0,1-4.34,1.24,45.85,45.85,0,0,1-5.57.19,24.29,24.29,0,0,0-1.08-4.11,28.66,28.66,0,0,0-1.72-4c1.17.05,2.35.08,3.55.1l2.44,0a1.26,1.26,0,0,0,.88-.22,1.07,1.07,0,0,0,.23-.75Z"/><path class="cls-1" d="M1132.59,130.55c2.82-.52,6.13-1.21,9.91-2.05l11.4-2.58,1.18,8.67q-5.08,1.31-10.4,2.61t-9.74,2.41Zm.85-20.34h22.62V119h-22.62Zm7.17-12h9.25V150a15.61,15.61,0,0,1-.65,5.06,5.23,5.23,0,0,1-2.54,2.9,12,12,0,0,1-4.43,1.37,51.77,51.77,0,0,1-6.13.32,24.14,24.14,0,0,0-.95-4.3,30.79,30.79,0,0,0-1.59-4.24c1.13,0,2.27.07,3.42.07h2.38a1.32,1.32,0,0,0,1-.29,1.44,1.44,0,0,0,.26-1Zm41.39,28h1.76l1.63-.33,6.13,2.48a47,47,0,0,1-5.25,12.38,37,37,0,0,1-7.79,9,43.34,43.34,0,0,1-10.17,6.22,68.33,68.33,0,0,1-12.45,4.08,19.12,19.12,0,0,0-1.17-2.9c-.52-1.07-1.08-2.11-1.67-3.13a19.86,19.86,0,0,0-1.72-2.58,55.18,55.18,0,0,0,11-2.9,36.51,36.51,0,0,0,8.93-4.85,29.21,29.21,0,0,0,6.65-6.94,29.51,29.51,0,0,0,4.11-9.16Zm-21-26.08h8.8v7.3a27.51,27.51,0,0,1-.88,6.85,17.11,17.11,0,0,1-3.32,6.48,18.62,18.62,0,0,1-7.14,5.12,15.31,15.31,0,0,0-1.7-2.28c-.78-.91-1.58-1.8-2.41-2.67a16.45,16.45,0,0,0-2.15-2,17.11,17.11,0,0,0,5.9-3.55,8.93,8.93,0,0,0,2.38-4,17.7,17.7,0,0,0,.52-4.27Zm-5.22,26.08h29.34v8.8h-29.34Zm9.33,7.17a30.41,30.41,0,0,0,6.84,8.24,38.59,38.59,0,0,0,10,6.1,58,58,0,0,0,13,3.71,29.08,29.08,0,0,0-2.12,2.61c-.76,1-1.48,2.12-2.15,3.23s-1.23,2.1-1.66,3a50.26,50.26,0,0,1-19.3-8.63,47.47,47.47,0,0,1-12.9-15.35Zm-2.35-33.25h18.06v8.74h-18.06Zm13.75,0h8.93V114a8,8,0,0,0,.2,2.09.86.86,0,0,0,.91.65h2.67a17,17,0,0,0,2-.13,8.8,8.8,0,0,0,1.86-.39c.09,1.17.17,2.49.26,3.94s.22,2.73.39,3.82a5.88,5.88,0,0,1-2,.48c-.78.07-1.56.1-2.34.1h-3.79a11.81,11.81,0,0,1-5.73-1.11,5.53,5.53,0,0,1-2.64-3.48,22.42,22.42,0,0,1-.69-6.1Z"/><path class="cls-1" d="M1211,102.78h7.69v18.64c0,2.7-.06,5.67-.16,8.93s-.34,6.61-.69,10-.84,6.77-1.47,10a49.73,49.73,0,0,1-2.51,8.83,13.49,13.49,0,0,0-2-1.3c-.87-.48-1.75-.94-2.64-1.37a17.2,17.2,0,0,0-2.37-1,42.7,42.7,0,0,0,2.31-8.11q.81-4.41,1.24-9t.52-9c.06-2.91.1-5.61.1-8.09ZM1234.08,99l6.78,6.19q-4,1.11-8.67,2t-9.52,1.37q-4.82.53-9.32.84a18.44,18.44,0,0,0-.88-3.35,18.13,18.13,0,0,0-1.4-3.23q4.17-.39,8.41-.94t8-1.28A57,57,0,0,0,1234.08,99Zm-19.94,11.21H1240v16.17h-25.81v-6.91h17.47v-2.35h-17.47Zm7.49,15.39,6.32,1.76a52.92,52.92,0,0,1-3.84,9.28,34.75,34.75,0,0,1-5.28,7.66c-.22-.47-.55-1.1-1-1.89s-.94-1.56-1.44-2.34a13.44,13.44,0,0,0-1.4-1.89,24.36,24.36,0,0,0,3.91-5.67A39.14,39.14,0,0,0,1221.63,125.6Zm4.63,5h14.08v5.67h-14.08v23.34h-6.71V136l4.69-5.48Zm-3.26,7.24h16.75v5H1223Zm0,6.51h16.75v5.09H1223Zm.2,6.65h17.66v6H1223.2Zm4.49-23.46,6.26-1.44c.48,1,1,2,1.4,3.16a18.83,18.83,0,0,1,1,3l-6.52,1.76c-.17-.86-.45-1.92-.81-3.16A22.75,22.75,0,0,0,1227.69,127.49Zm1.37,6h6v20.86h-6Zm18.84,13.11,7.24,4.49a39.1,39.1,0,0,1-5.12,5.09,33.24,33.24,0,0,1-6,4.1c-.7-.78-1.62-1.7-2.77-2.77s-2.21-2-3.17-2.7a24.26,24.26,0,0,0,3.69-2.31,35.78,35.78,0,0,0,3.45-3A26.47,26.47,0,0,0,1247.9,146.59Zm-6.45-46h27.31v7.89h-27.31Zm1.17,11h25v34.94h-25Zm8.22-6.52,9.84,1q-.92,3.06-1.86,5.93t-1.73,4.95l-7.43-1.3q.46-2.35.78-5.28C1250.66,108.45,1250.79,106.67,1250.84,105.06Zm-.59,13.5v2.67h9.39v-2.67Zm0,9.12v2.74h9.39v-2.74Zm0,9.19v2.68h9.39v-2.68Zm5.41,14,6.71-4.17q2,1.82,4.18,4.17a35.08,35.08,0,0,1,3.45,4.17l-7.11,4.69A17.13,17.13,0,0,0,1261,157c-.82-1-1.7-2.07-2.64-3.16S1256.53,151.76,1255.66,150.89Z"/><path class="cls-1" d="M1017.77,217.93c-1.77.88-5.93,1.89-11.22,1.89-15.22,0-23.06-9.5-23.06-22,0-15,10.74-23.27,24-23.27,5.16,0,9.09,1,10.81,1.95l-2,7.86a20.78,20.78,0,0,0-8.35-1.65c-7.83,0-14,4.77-14,14.54,0,8.8,5.2,14.34,14,14.34a23.93,23.93,0,0,0,8.3-1.42Z"/><path class="cls-1" d="M1030.3,172.86h9.93v46.28h-9.93Z"/><path class="cls-1" d="M1065,178.38c0,2.76-2,5-5.33,5a4.86,4.86,0,0,1-5.16-5c0-2.83,2.06-5,5.25-5A4.89,4.89,0,0,1,1065,178.38Zm-10.21,40.76v-31.9h9.93v31.9Z"/><path class="cls-1" d="M1103.06,218.34a23.45,23.45,0,0,1-8.88,1.48c-10.31,0-16.87-6.31-16.87-16.33,0-9.32,6.37-17,18.23-17a22.91,22.91,0,0,1,7.57,1.26l-1.54,7.37a13.43,13.43,0,0,0-5.55-1c-5.25,0-8.61,3.73-8.57,8.94,0,5.86,3.93,9,8.73,9a14.75,14.75,0,0,0,5.71-1Z"/><path class="cls-1" d="M1125,200.71h.13c.74-1.35,1.52-2.66,2.29-3.84l6.47-9.63h11.9l-11.44,12.94,13,19h-12.18L1127.47,206l-2.51,3.16v9.95H1115V172.86H1125Z"/><path class="cls-1" d="M1193.92,217.11a48.71,48.71,0,0,1-14.66,2.47c-8,0-13.82-2-17.86-5.9s-6.24-9.53-6.21-16c0-14.61,10.7-22.92,25.08-22.92,5.68,0,10,1.07,12.21,2.11l-2.07,8a24.28,24.28,0,0,0-10.22-1.87c-8.28,0-14.58,4.66-14.58,14.21,0,9.07,5.73,14.39,13.86,14.39a14.28,14.28,0,0,0,4.86-.62v-9.23h-6.8V194h16.39Z"/><path class="cls-1" d="M1239.72,202.87c0,11.65-8.26,17-16.81,17-9.28,0-16.47-6.13-16.47-16.43s6.79-16.9,17-16.9C1233.23,186.52,1239.72,193.24,1239.72,202.87Zm-23.06.32c0,5.45,2.3,9.58,6.52,9.58,3.87,0,6.32-3.87,6.32-9.63,0-4.7-1.82-9.54-6.31-9.54C1218.46,193.6,1216.66,198.47,1216.66,203.19Z"/><path class="cls-1" d="M339.38,151.48,353.62,70.7h-113L221.05,181.37H323.4Zm-41.19,7.58H265.27l11.64-66h32.92Z"/><polygon class="cls-1" points="429.75 52.95 441.33 31.29 239.93 31.29 236.12 52.94 375.38 52.94 349.79 198.05 301.93 198.05 310.73 219.91 376.53 219.91 392.27 190.47 416.52 52.94 418.28 52.94 418.28 52.95 429.75 52.95"/><polygon class="cls-1" points="509.65 210.08 535.34 210.08 545.08 108.01 519.16 108.01 509.65 210.08"/><polygon class="cls-1" points="447.24 108.01 420.31 210.08 445.99 210.08 472.92 108.01 447.24 108.01"/><polygon class="cls-1" points="549.82 97.73 561.28 76.29 520.96 76.29 525.1 52.84 555.89 52.84 571.89 22.91 528.56 22.91 523.53 31.17 466.32 31.17 454.74 52.84 486.23 52.84 482.1 76.29 453.38 76.29 441.92 97.73 478.31 97.73 456.77 219.91 495.63 219.91 517.18 97.73 549.82 97.73"/><polygon class="cls-1" points="610.78 22.91 579.94 197.8 545.54 197.8 551.02 219.9 615.8 219.9 645.26 52.84 645.27 52.84 661.27 22.91 610.78 22.91"/><polygon class="cls-1" points="547.47 178.81 575.92 178.81 575.96 178.59 600.26 40.77 571.81 40.77 547.47 178.81"/><polygon class="cls-2" points="874.16 152.5 880.3 152.5 884.23 130.2 878.1 130.2 874.16 152.5"/><polygon class="cls-2" points="886.54 188.41 892.58 188.41 897.16 162.43 891.12 162.43 886.54 188.41"/><path class="cls-2" d="M844.51,97.87,828.24,128.3l-16.15,91.62H926.43l16.34-30.57,16.16-91.48ZM924,130.2h-27.3l-3.93,22.3h27.3l-8.05,45.62H884.76l-.94,5.32H871.25l.94-5.32H846.73l-2.17-9.71H873.9l4.58-26h-27.4l7.45-42.24h27.4l1-5.83h12.57l-1,5.83h27.3Z"/><polygon class="cls-2" points="733.28 142.49 765.61 142.49 755.87 197.81 691.39 197.81 712.88 75.91 820 75.91 832.16 53.19 683.33 53.19 667.87 82.13 643.56 219.92 784.98 219.92 800.59 190.72 812.92 120.82 737.1 120.82 733.28 142.49"/><path class="cls-1" d="M167.23,207.23a7.33,7.33,0,0,1-6.82,5.84H9.7a3.85,3.85,0,0,1-3-1.26,4,4,0,0,1-.74-3.38l9.58-54.34c-1.21-.45-2.43-1-3.65-1.52-1-.46-1.92-.95-2.86-1.49l-9.9,56.15a11,11,0,0,0,2.26,9A10.66,10.66,0,0,0,9.7,220H160.41a14.27,14.27,0,0,0,13.65-11.57L194.72,91.25l-6.15-5Z"/><path class="cls-1" d="M16.2,124a7.57,7.57,0,0,0,1.95,1.53,13.34,13.34,0,0,0,2.24,1L32.26,59.09a7.36,7.36,0,0,1,6.84-5.84h81.72c3.46-2.1,7-4.43,10.44-6.93H39.1A14.26,14.26,0,0,0,25.44,57.89L14.59,119.46a11.69,11.69,0,0,0,.44,2.16A6.78,6.78,0,0,0,16.2,124Z"/><circle class="cls-2" cx="62.77" cy="89.07" r="26.46"/><path class="cls-1" d="M61.58,197.77l7.33-41.56q-2.72.48-5.43.87a137.41,137.41,0,0,1-19.42,1.47A106.21,106.21,0,0,1,30,157.63l-1-.15-7.11,40.29Z"/><path class="cls-1" d="M108.2,197.77l10.26-58.16a196,196,0,0,1-23.34,9.75,171.88,171.88,0,0,1-19,5.41l-7.59,43Z"/><path class="cls-1" d="M154.83,197.77,172,100.65a196.3,196.3,0,0,1-19.52,17.54,196.14,196.14,0,0,1-26.34,17.42l-11,62.16Z"/><path class="cls-2" d="M120.52,61.2l22.06-.13a153.18,153.18,0,0,1-18.71,25,161.62,161.62,0,0,1-41.54,32.48,150.59,150.59,0,0,1-24.57,10.75,97.08,97.08,0,0,1-25.84,5.08c-.8,0-1.59.05-2.37.05a38.84,38.84,0,0,1-9.75-1.1,20.61,20.61,0,0,1-4.93-2,14.37,14.37,0,0,1-3.82-3.08,13.78,13.78,0,0,1-2.45-4.65,24,24,0,0,1-.9-6.16,53.27,53.27,0,0,1,2-14,31.44,31.44,0,0,0-4.85,5.85,33,33,0,0,0-3.57,7,25.39,25.39,0,0,0-1.62,8.27,21.65,21.65,0,0,0,1.74,9.1A23.25,23.25,0,0,0,7,141.41a28.89,28.89,0,0,0,7.68,5.05A56.47,56.47,0,0,0,30.91,151a99.31,99.31,0,0,0,13.15.86,132.33,132.33,0,0,0,18.5-1.4A164.17,164.17,0,0,0,92.93,143a190.67,190.67,0,0,0,55.35-30.13,191.31,191.31,0,0,0,36.81-38.27l20.29,16.69C195.3,65.79,190.41,28.67,190,0,171.62,22,144.43,47.75,120.52,61.2Z"/></svg>