<?xml version="1.0" encoding="utf-8"?>
<!-- Generator: Adobe Illustrator 26.0.1, SVG Export Plug-In . SVG Version: 6.00 Build 0)  -->
<svg version="1.1" id="圖層_1" xmlns="http://www.w3.org/2000/svg" xmlns:xlink="http://www.w3.org/1999/xlink" x="0px" y="0px"
	 viewBox="0 0 400 250" style="enable-background:new 0 0 400 250;" xml:space="preserve">
<style type="text/css">
	.st0{fill:#6B6B6B;}
	.st1{opacity:0.2;enable-background:new    ;}
	.st2{fill:#4D4D4D;}
	.st3{fill:#CACACA;}
	.st4{fill:#FFA000;}
	.st5{fill:#F0F0F0;}
	.st6{opacity:0.1;fill:#333333;enable-background:new    ;}
	.st7{fill:#FFFFFF;}
	.st8{fill:#F5AD21;}
	.st9{fill:#FDCF76;}
	.st10{fill:#1A1A1A;}
	.st11{fill:#333333;}
	.st12{opacity:0.1;enable-background:new    ;}
</style>
<g>
	<path class="st0" d="M379.9,231.41H20.1c-3.93,0-7.14-3.21-7.14-7.14l0,0c0-3.93,3.21-7.14,7.14-7.14h359.8
		c3.93,0,7.14,3.21,7.14,7.14l0,0C387.04,228.2,383.83,231.41,379.9,231.41z"/>
	<g>
		<path class="st1" d="M354.95,224.92H57.11c-0.95,0-1.72-0.77-1.72-1.72l0,0c0-0.95,0.77-1.72,1.72-1.72h297.84
			c0.95,0,1.72,0.77,1.72,1.72l0,0C356.67,224.15,355.9,224.92,354.95,224.92z"/>
		<g>
			<g>
				<g>
					<path class="st2" d="M140.75,222.78L108.62,8.68c-0.05-0.34,0.22-0.65,0.56-0.65h5.34c0.28,0,0.52,0.21,0.56,0.49l32.13,214.1"
						/>
					<path class="st2" d="M107.77,222.78L75.64,8.68c-0.05-0.34,0.22-0.65,0.56-0.65h5.34c0.28,0,0.52,0.21,0.56,0.49l32.13,214.1"
						/>
					<path class="st2" d="M107.46,190.76h30.29c1.67,0,3.03-1.36,3.03-3.03l0,0c0-1.67-1.36-3.03-3.03-3.03h-30.29
						c-1.67,0-3.03,1.36-3.03,3.03l0,0C104.43,189.4,105.78,190.76,107.46,190.76z"/>
					<path class="st2" d="M103.08,162.49h30.29c1.67,0,3.03-1.36,3.03-3.03l0,0c0-1.67-1.36-3.03-3.03-3.03h-30.29
						c-1.67,0-3.03,1.36-3.03,3.03l0,0C100.05,161.13,101.41,162.49,103.08,162.49z"/>
					<path class="st2" d="M98.71,134.22H129c1.67,0,3.03-1.36,3.03-3.03l0,0c0-1.67-1.36-3.03-3.03-3.03H98.71
						c-1.67,0-3.03,1.36-3.03,3.03l0,0C95.68,132.86,97.03,134.22,98.71,134.22z"/>
					<path class="st2" d="M94.33,105.95h30.29c1.67,0,3.03-1.36,3.03-3.03l0,0c0-1.67-1.36-3.03-3.03-3.03H94.33
						c-1.67,0-3.03,1.36-3.03,3.03l0,0C91.3,104.6,92.66,105.95,94.33,105.95z"/>
					<path class="st2" d="M90.97,80.38h30.29c1.67,0,3.03-1.36,3.03-3.03l0,0c0-1.67-1.36-3.03-3.03-3.03H90.97
						c-1.67,0-3.03,1.36-3.03,3.03l0,0C87.94,79.02,89.29,80.38,90.97,80.38z"/>
					<path class="st2" d="M86.59,52.11h30.29c1.67,0,3.03-1.36,3.03-3.03l0,0c0-1.67-1.36-3.03-3.03-3.03H86.59
						c-1.67,0-3.03,1.36-3.03,3.03l0,0C83.56,50.75,84.92,52.11,86.59,52.11z"/>
					<path class="st2" d="M83.23,26.53h30.29c1.67,0,3.03-1.36,3.03-3.03l0,0c0-1.67-1.36-3.03-3.03-3.03H83.23
						c-1.67,0-3.03,1.36-3.03,3.03l0,0C80.2,25.18,81.55,26.53,83.23,26.53z"/>
				</g>
				<g>
					<path class="st3" d="M49.79,222.78L81.92,8.68c0.05-0.34-0.22-0.65-0.56-0.65h-5.34c-0.28,0-0.52,0.21-0.56,0.49l-32.13,214.1"
						/>
					<path class="st3" d="M82.77,222.78L114.9,8.68c0.05-0.34-0.22-0.65-0.56-0.65H109c-0.28,0-0.52,0.21-0.56,0.49l-32.13,214.1"/>
					<path class="st3" d="M83.09,190.76H52.8c-1.67,0-3.03-1.36-3.03-3.03l0,0c0-1.67,1.36-3.03,3.03-3.03h30.29
						c1.67,0,3.03,1.36,3.03,3.03l0,0C86.11,189.4,84.76,190.76,83.09,190.76z"/>
					<path class="st3" d="M87.46,162.49H57.17c-1.67,0-3.03-1.36-3.03-3.03l0,0c0-1.67,1.36-3.03,3.03-3.03h30.29
						c1.67,0,3.03,1.36,3.03,3.03l0,0C90.49,161.13,89.13,162.49,87.46,162.49z"/>
					<path class="st3" d="M91.84,134.22H61.55c-1.67,0-3.03-1.36-3.03-3.03l0,0c0-1.67,1.36-3.03,3.03-3.03h30.29
						c1.67,0,3.03,1.36,3.03,3.03l0,0C94.86,132.86,93.51,134.22,91.84,134.22z"/>
					<path class="st3" d="M96.21,105.95H65.92c-1.67,0-3.03-1.36-3.03-3.03l0,0c0-1.67,1.36-3.03,3.03-3.03h30.29
						c1.67,0,3.03,1.36,3.03,3.03l0,0C99.24,104.6,97.88,105.95,96.21,105.95z"/>
					<path class="st3" d="M99.58,80.38H69.29c-1.67,0-3.03-1.36-3.03-3.03l0,0c0-1.67,1.36-3.03,3.03-3.03h30.29
						c1.67,0,3.03,1.36,3.03,3.03l0,0C102.6,79.02,101.25,80.38,99.58,80.38z"/>
					<path class="st3" d="M103.95,52.11H73.66c-1.67,0-3.03-1.36-3.03-3.03l0,0c0-1.67,1.36-3.03,3.03-3.03h30.29
						c1.67,0,3.03,1.36,3.03,3.03l0,0C106.98,50.75,105.62,52.11,103.95,52.11z"/>
					<path class="st3" d="M107.32,26.53H77.03c-1.67,0-3.03-1.36-3.03-3.03l0,0c0-1.67,1.36-3.03,3.03-3.03h30.29
						c1.67,0,3.03,1.36,3.03,3.03l0,0C110.34,25.18,108.99,26.53,107.32,26.53z"/>
				</g>
				<path class="st4" d="M114.59,9.04h-39c-1.03,0-1.81-0.95-1.59-1.97l0.41-2.14c0.16-0.75,0.82-1.28,1.59-1.28h39
					c1.04,0,1.81,0.95,1.59,1.97l-0.41,2.14C116.02,8.51,115.36,9.04,114.59,9.04z"/>
			</g>
			<path class="st2" d="M281.42,197.61l-1.42-6.85l0,0l-0.54-2.63l0,0l-0.56-2.71l-3.19-15.4c-0.18-0.88-0.95-1.51-1.85-1.51h-8.19
				h-0.4l-1.59-10.82h1H272c1.2,0,2.09-1.1,1.85-2.27l-1.42-6.85l0,0l-0.54-2.63l0,0l-0.56-2.71l-3.19-15.4
				c-0.18-0.88-0.95-1.51-1.85-1.51h-7.24l-0.88-6c-0.04-0.28-0.28-0.49-0.56-0.49h-5.34c-0.35,0-0.61,0.31-0.56,0.65l0.86,5.84
				h-5.24h-19.47h-7.61h-14.68h-7.61h-15h-2.85l-0.88-6c-0.04-0.28-0.28-0.49-0.56-0.49h-5.34c-0.35,0-0.61,0.31-0.56,0.65
				l0.86,5.84h-5.38h-4.07c-1.2,0-2.09,1.1-1.85,2.27l2.93,14.17l0,0l1.1,5.33l1.67,8.09c0.18,0.88,0.95,1.51,1.85,1.51h8.37
				l1.59,10.82h-4.03h-4.07c-1.2,0-2.09,1.1-1.85,2.27l2.93,14.17l0,0l1.1,5.33l1.67,8.09c0.18,0.88,0.95,1.51,1.85,1.51h7.01
				l3.28,22.23c0.04,0.28,0.28,0.49,0.56,0.49h5.34c0.35,0,0.61-0.31,0.56-0.65l-3.25-22.06h2.94h14.68h7.61h19.47h10.77h16.99
				l3.28,22.23c0.04,0.28,0.28,0.49,0.56,0.49h5.34c0.35,0,0.61-0.31,0.56-0.65l-3.25-22.06h2.35h7.33
				C280.77,199.89,281.67,198.79,281.42,197.61z M258.78,168.52h-3.88h-19.47h-7.61h-14.68h-7.61h-15h-4.2l-1.59-10.82h1.59h14.68
				h7.61h19.47h10.77h18.22h0.13L258.78,168.52z"/>
			<g>
				<path class="st3" d="M232.8,222.6h5.34c0.28,0,0.52-0.21,0.56-0.49l14.97-101.61c0.05-0.34-0.22-0.65-0.56-0.65h-5.34
					c-0.28,0-0.52,0.21-0.56,0.49l-14.97,101.61C232.19,222.29,232.45,222.6,232.8,222.6z"/>
				<path class="st3" d="M153.84,222.6h5.34c0.28,0,0.52-0.21,0.56-0.49l14.97-101.61c0.05-0.34-0.22-0.65-0.56-0.65h-5.34
					c-0.28,0-0.52,0.21-0.56,0.49l-14.97,101.61C153.23,222.29,153.49,222.6,153.84,222.6z"/>
				<g>
					<path class="st5" d="M154.42,157.7h102.13c0.9,0,1.67-0.63,1.85-1.51l5.71-27.58c0.24-1.17-0.65-2.27-1.85-2.27H160.13
						c-0.9,0-1.67,0.63-1.85,1.51l-5.71,27.58C152.33,156.6,153.23,157.7,154.42,157.7z"/>
					<g>
						<polygon class="st4" points="168.32,126.34 187.58,157.7 198.35,157.7 179.1,126.34 						"/>
						<polygon class="st4" points="154.53,145.95 161.75,157.7 169.36,157.7 156.45,136.67 						"/>
						<polygon class="st4" points="198.57,126.34 217.82,157.7 225.44,157.7 206.18,126.34 						"/>
						<polygon class="st4" points="220.86,126.34 240.12,157.7 247.73,157.7 228.48,126.34 						"/>
						<polygon class="st4" points="251.09,126.34 243.48,126.34 259.27,152.06 261.19,142.78 						"/>
					</g>
					<path class="st5" d="M146.85,199.89h102.13c0.9,0,1.67-0.63,1.85-1.51l5.71-27.58c0.24-1.17-0.65-2.27-1.85-2.27H152.56
						c-0.9,0-1.67,0.63-1.85,1.51L145,197.61C144.76,198.79,145.65,199.89,146.85,199.89z"/>
					<g>
						<polygon class="st4" points="160.75,168.52 180.01,199.89 190.78,199.89 171.53,168.52 						"/>
						<polygon class="st4" points="146.96,188.13 154.18,199.89 161.79,199.89 148.88,178.86 						"/>
						<polygon class="st4" points="190.99,168.52 210.25,199.89 217.86,199.89 198.61,168.52 						"/>
						<polygon class="st4" points="213.29,168.52 232.55,199.89 240.16,199.89 220.9,168.52 						"/>
						<polygon class="st4" points="243.52,168.52 235.91,168.52 251.7,194.24 253.61,184.96 						"/>
					</g>
				</g>
				<path class="st6" d="M262.27,126.34h-4.07l-4.45,21.52c-0.17,0.83-0.9,1.43-1.75,1.43h-96.6c-0.58,0-1.09-0.28-1.41-0.7
					l-1.42,6.85c-0.24,1.17,0.65,2.27,1.85,2.27h102.13c0.9,0,1.67-0.63,1.85-1.51l5.71-27.58
					C264.36,127.44,263.46,126.34,262.27,126.34z"/>
				<path class="st6" d="M254.69,168.52h-4.07l-4.45,21.52c-0.17,0.83-0.9,1.43-1.75,1.43h-96.59c-0.58,0-1.09-0.28-1.41-0.7
					l-1.42,6.85c-0.24,1.17,0.65,2.27,1.85,2.27h102.13c0.9,0,1.67-0.63,1.85-1.51l5.71-27.58
					C256.79,169.62,255.89,168.52,254.69,168.52z"/>
				<g>
					<path class="st7" d="M158.59,175.01H164c1.19,0,2.16-0.97,2.16-2.16l0,0c0-1.19-0.97-2.16-2.16-2.16h-5.41
						c-1.19,0-2.16,0.97-2.16,2.16l0,0C156.43,174.04,157.4,175.01,158.59,175.01z"/>
					<path class="st7" d="M236.83,187.27h3.61c0.79,0,1.44-0.65,1.44-1.44l0,0c0-0.79-0.65-1.44-1.44-1.44h-3.61
						c-0.79,0-1.44,0.65-1.44,1.44l0,0C235.38,186.62,236.03,187.27,236.83,187.27z"/>
					<path class="st7" d="M181.3,132.83h5.41c1.19,0,2.16-0.97,2.16-2.16l0,0c0-1.19-0.97-2.16-2.16-2.16h-5.41
						c-1.19,0-2.16,0.97-2.16,2.16l0,0C179.14,131.85,180.12,132.83,181.3,132.83z"/>
					<path class="st7" d="M168.33,146.89h6.49c1.19,0,2.16-0.97,2.16-2.16l0,0c0-1.19-0.97-2.16-2.16-2.16h-6.49
						c-1.19,0-2.16,0.97-2.16,2.16l0,0C166.16,145.92,167.14,146.89,168.33,146.89z"/>
					<path class="st7" d="M242.96,134.99h6.49c1.19,0,2.16-0.97,2.16-2.16l0,0c0-1.19-0.97-2.16-2.16-2.16h-6.49
						c-1.19,0-2.16,0.97-2.16,2.16l0,0C240.79,134.02,241.77,134.99,242.96,134.99z"/>
				</g>
			</g>
		</g>
		<g>
			<path class="st3" d="M293.54,222.6h-4.88c-0.23,0-0.42-0.19-0.42-0.42V73.1c0-0.23,0.19-0.42,0.42-0.42h4.88
				c0.23,0,0.42,0.19,0.42,0.42v149.08C293.96,222.41,293.77,222.6,293.54,222.6z"/>
			<path class="st4" d="M245.94,55.69l42.87,42.87c1.26,1.26,3.31,1.26,4.58,0l42.87-42.87c1.26-1.26,1.26-3.31,0-4.58L293.39,8.24
				c-1.26-1.26-3.31-1.26-4.58,0l-42.87,42.87C244.67,52.38,244.67,54.43,245.94,55.69z"/>
			<path class="st7" d="M253.4,54.59l35.79,35.79c1.06,1.06,2.77,1.06,3.82,0l35.79-35.79c1.06-1.06,1.06-2.77,0-3.82l-35.79-35.79
				c-1.06-1.06-2.77-1.06-3.82,0L253.4,50.77C252.35,51.82,252.35,53.54,253.4,54.59z"/>
		</g>
		<g>
			<g>
				<path class="st4" d="M318.37,180.24c-0.22-0.63-1.11-0.63-1.33-0.01l-4.96,13.92h11.12L318.37,180.24z"/>
				<path class="st4" d="M332.2,220.08l-4.06-11.71h-21.13l-4.17,11.7c-0.16,0.46,0.18,0.94,0.67,0.94h28.04
					C332.02,221.02,332.36,220.54,332.2,220.08z"/>
				<polygon class="st5" points="323.2,194.15 312.08,194.15 307.01,208.37 328.14,208.37 				"/>
			</g>
			<path class="st8" d="M299.24,222.6h36.68c0.36,0,0.65-0.29,0.65-0.65v-2.67c0-0.36-0.29-0.65-0.65-0.65h-36.68
				c-0.36,0-0.65,0.29-0.65,0.65v2.67C298.6,222.31,298.89,222.6,299.24,222.6z"/>
			<path class="st6" d="M335.72,218.65h-4l-3.55-10.27l-4.92-14.23l-4.81-13.91c-0.22-0.63-1.1-0.63-1.33-0.01l-0.64,1.81
				l11.16,34.23H304.3l-0.84,2.37h-4.01c-0.47,0-0.85,0.38-0.85,0.85v2.24c0,0.47,0.38,0.85,0.85,0.85h36.28
				c0.47,0,0.85-0.38,0.85-0.85v-2.24C336.57,219.03,336.19,218.65,335.72,218.65z"/>
			<g>
				<path class="st7" d="M317.71,195.73h1.58c0.65,0,1.19-0.53,1.19-1.19l0,0c0-0.65-0.53-1.19-1.19-1.19h-1.58
					c-0.65,0-1.19,0.53-1.19,1.19l0,0C316.53,195.2,317.06,195.73,317.71,195.73z"/>
				<path class="st7" d="M314.16,208.37H311c-0.43,0-0.79-0.36-0.79-0.79l0,0c0-0.43,0.36-0.79,0.79-0.79h3.16
					c0.43,0,0.79,0.36,0.79,0.79l0,0C314.95,208.02,314.59,208.37,314.16,208.37z"/>
				<path class="st9" d="M321.67,215.49h2.37c0.65,0,1.19-0.53,1.19-1.19l0,0c0-0.65-0.53-1.19-1.19-1.19h-2.37
					c-0.65,0-1.19,0.53-1.19,1.19l0,0C320.48,214.95,321.01,215.49,321.67,215.49z"/>
			</g>
			<path class="st9" d="M316.53,190.2h-0.79c-0.43,0-0.79-0.36-0.79-0.79l0,0c0-0.43,0.36-0.79,0.79-0.79h0.79
				c0.43,0,0.79,0.36,0.79,0.79l0,0C317.32,189.84,316.96,190.2,316.53,190.2z"/>
		</g>
		<g>
			<g>
				<path class="st10" d="M141.65,222.26l1.19,1.06c0.33,0.29,0.79,0.38,1.19,0.22l1.42-0.53c5.1-1.9,8.76-6.06,9.72-11.09
					l2.31-11.98c0.09-0.45-0.16-0.9-0.6-1.11l-1.99-0.95c-1.97-0.94-4.05-1.63-6.2-2.04h-0.02c-2.05-0.4-4.15-0.54-6.23-0.42
					l-2.58,0.14c-0.5,0.03-0.9,0.36-0.99,0.81l-2.29,11.86C135.62,213.31,137.53,218.6,141.65,222.26z"/>
				<path class="st3" d="M146.92,204.67h-0.02c-0.65-0.13-1.08-0.76-0.95-1.41l15.15-78.56c0.13-0.65,0.76-1.08,1.41-0.95h0.02
					c0.65,0.13,1.08,0.76,0.95,1.41l-15.15,78.56C148.2,204.37,147.57,204.8,146.92,204.67z"/>
				<path class="st11" d="M146.84,205.7L146.84,205.7c-0.92-0.18-1.53-1.07-1.35-2l4.4-22.83c0.04-0.2,0.23-0.33,0.43-0.29
					l2.63,0.51c0.2,0.04,0.33,0.23,0.29,0.43l-4.4,22.83C148.65,205.27,147.76,205.88,146.84,205.7z"/>
				<path class="st12" d="M156.9,198.83l-0.91-0.43l-2.09,10.81c-0.97,5.03-4.62,9.19-9.73,11.09l-1.42,0.53
					c-0.41,0.15-0.87,0.07-1.19-0.22l-1.19-1.06c-1.3-1.16-2.36-2.49-3.2-3.91c0.86,2.47,2.38,4.76,4.48,6.62l1.19,1.06
					c0.33,0.29,0.79,0.38,1.19,0.22l1.42-0.53c5.1-1.9,8.76-6.06,9.73-11.09l2.31-11.98C157.59,199.49,157.34,199.04,156.9,198.83z"
					/>
			</g>
			<g>
				
					<rect x="159.85" y="123.41" transform="matrix(0.1894 -0.9819 0.9819 0.1894 9.07 260.573)" class="st4" width="5.01" height="2.76"/>
				<path class="st4" d="M159.51,113.37l-1.29,6.67c-0.26,1.37,0.63,2.7,2,2.96l4.62,0.89c1.37,0.26,2.7-0.63,2.96-2l1.29-6.67
					c0.13-0.65-0.3-1.28-0.95-1.41l-7.21-1.39C160.26,112.29,159.63,112.72,159.51,113.37z M163.29,121.42l-0.71-0.14
					c-1.37-0.26-2.27-1.59-2-2.96l0.7-3.64l5.67,1.09l-0.7,3.64C165.99,120.78,164.66,121.68,163.29,121.42z"/>
				
					<rect x="163" y="112.2" transform="matrix(0.1894 -0.9819 0.9819 0.1894 21.0366 253.9285)" class="st11" width="2.62" height="4.05"/>
			</g>
		</g>
		<g>
			<g>
				<path class="st4" d="M93.58,181.27c-0.22-0.63-1.11-0.63-1.33-0.01l-4.96,13.92H98.4L93.58,181.27z"/>
				<path class="st4" d="M107.4,221.11l-4.06-11.71H82.21l-4.17,11.7c-0.16,0.46,0.18,0.94,0.67,0.94h28.04
					C107.22,222.04,107.56,221.57,107.4,221.11z"/>
				<polygon class="st5" points="98.4,195.18 87.28,195.18 82.21,209.4 103.34,209.4 				"/>
			</g>
			<path class="st8" d="M74.45,223.63h36.68c0.36,0,0.65-0.29,0.65-0.65v-2.67c0-0.36-0.29-0.65-0.65-0.65H74.45
				c-0.36,0-0.65,0.29-0.65,0.65v2.67C73.8,223.33,74.09,223.63,74.45,223.63z"/>
			<path class="st6" d="M110.92,219.67h-4l-3.55-10.27l-4.92-14.23l-4.81-13.91c-0.22-0.63-1.1-0.63-1.33-0.01l-0.64,1.81
				l11.16,34.23H79.5l-0.84,2.37h-4.01c-0.47,0-0.85,0.38-0.85,0.85v2.24c0,0.47,0.38,0.85,0.85,0.85h36.28
				c0.47,0,0.85-0.38,0.85-0.85v-2.24C111.78,220.06,111.39,219.67,110.92,219.67z"/>
			<g>
				<path class="st7" d="M92.56,196.76h2.29c0.46,0,0.83-0.37,0.83-0.83v-0.71c0-0.46-0.37-0.83-0.83-0.83h-2.29
					c-0.46,0-0.83,0.37-0.83,0.83v0.71C91.73,196.38,92.1,196.76,92.56,196.76z"/>
				<path class="st7" d="M89.36,209.4H86.2c-0.43,0-0.79-0.36-0.79-0.79l0,0c0-0.43,0.36-0.79,0.79-0.79h3.16
					c0.43,0,0.79,0.36,0.79,0.79l0,0C90.15,209.04,89.79,209.4,89.36,209.4z"/>
				<path class="st9" d="M96.87,216.51h2.37c0.65,0,1.19-0.53,1.19-1.19l0,0c0-0.65-0.53-1.19-1.19-1.19h-2.37
					c-0.65,0-1.19,0.53-1.19,1.19l0,0C95.68,215.98,96.21,216.51,96.87,216.51z"/>
			</g>
			<path class="st9" d="M91.73,191.22h-0.79c-0.43,0-0.79-0.36-0.79-0.79l0,0c0-0.43,0.36-0.79,0.79-0.79h0.79
				c0.43,0,0.79,0.36,0.79,0.79l0,0C92.52,190.87,92.16,191.22,91.73,191.22z"/>
		</g>
		<g>
			<path class="st2" d="M291.73,59.49h-3.29c-0.37,0-0.68-0.3-0.69-0.67l-0.59-25.71c-0.01-0.39,0.3-0.7,0.69-0.7h4.47
				c0.39,0,0.7,0.32,0.69,0.7l-0.59,25.71C292.41,59.2,292.11,59.49,291.73,59.49z M292.28,68.45h-4.39c-0.38,0-0.69-0.31-0.69-0.69
				v-4.39c0-0.38,0.31-0.69,0.69-0.69h4.39c0.38,0,0.69,0.31,0.69,0.69v4.39C292.97,68.15,292.66,68.45,292.28,68.45z"/>
		</g>
	</g>
</g>
</svg>
