<svg width="128" height="64" viewBox="0 0 128 64" fill="none" xmlns="http://www.w3.org/2000/svg">
<path d="M112 0H0L128 64V16C128 7.16345 120.837 0 112 0Z" fill="#FFA000"/>
<path d="M74.6817 14.814L76.4746 15.6634L73.2689 22.4304C72.8442 23.3269 73.0215 23.588 74.6265 24.3483C75.3784 24.7045 78.545 26.2046 79.3981 26.6088C80.8875 27.3143 81.2969 27.048 82.5063 25.0183C82.8175 25.5199 83.4834 26.2071 83.9484 26.5336C82.3143 29.1234 81.3014 29.6173 78.6553 28.3637C77.9468 28.0281 74.4765 26.3841 73.8258 26.0758C71.0206 24.7469 70.4278 23.7933 71.4759 21.581L74.6817 14.814ZM74.7912 17.2737L82.7873 21.0617L81.9721 22.7824L73.976 18.9943L74.7912 17.2737ZM75.4459 11.7059L86.2182 16.8091L82.8138 23.9955L81.0063 23.1393L83.5956 17.6736L74.6307 13.4266L75.4459 11.7059ZM95.0545 21.4024L102.472 24.9164L101.684 26.5793L94.2668 23.0652L95.0545 21.4024ZM97.8847 23.5753L99.6488 24.411L95.0525 34.1133C94.5867 35.0966 94.1726 35.4847 93.4207 35.4649C92.6833 35.4519 91.7373 35.0569 90.4504 34.4472C90.6255 33.9282 90.7062 33.0104 90.7146 32.3947C91.5616 32.8491 92.487 33.2875 92.7762 33.4245C93.0509 33.5546 93.1788 33.509 93.2952 33.2632L97.8847 23.5753ZM88.0125 22.103L92.683 24.3156L92.0665 25.6169L87.396 23.4044L88.0125 22.103ZM89.9899 18.1533L94.6025 20.3384L93.9791 21.6542L89.3665 19.4691L89.9899 18.1533ZM87.0809 24.0695L91.7514 26.282L91.128 27.5979L86.4576 25.3853L87.0809 24.0695ZM88.2699 19.7286L94.2272 22.5508L93.5765 23.9244L87.6191 21.1022L88.2699 19.7286ZM86.9241 26.4561L90.7559 28.2714L88.6735 32.6671L84.8417 30.8518L85.4924 29.4782L87.806 30.5742L88.5869 28.9258L86.2733 27.8298L86.9241 26.4561ZM86.0854 26.0588L87.5892 26.7712L85.2328 31.7453L83.729 31.0329L86.0854 26.0588ZM105.079 35.4463L104.716 36.2127L107.449 37.5073L107.812 36.7409L105.079 35.4463ZM104.2 33.826L109.709 36.4358L108.408 39.1832L102.899 36.5733L104.2 33.826ZM106.046 37.5156L107.478 38.1938L106.724 39.7843C106.574 40.1024 106.574 40.1382 106.748 40.2204C106.82 40.2546 107.08 40.3779 107.167 40.419C107.355 40.5081 107.453 40.413 107.839 39.6748C108.003 40.0005 108.485 40.4769 108.82 40.7418C108.094 41.9381 107.575 42.0994 106.78 41.7227C106.563 41.6199 106.144 41.4213 105.912 41.3117C104.784 40.7774 104.724 40.3063 105.286 39.1206L106.046 37.5156ZM103.756 36.8557L105.145 37.5133C104.292 38.8268 103.304 39.4919 101.15 39.1798C101.156 38.7574 101.047 38.0154 100.874 37.6326C102.536 38.0124 103.194 37.6692 103.756 36.8557ZM104.379 27.431L107.965 29.1298L107.458 30.1998L103.872 28.501L104.379 27.431ZM107.005 32.8002L109.709 34.0812L109.141 35.2813L106.437 34.0004L107.005 32.8002ZM110.843 30.4929L114.458 32.2054L113.951 33.2754L110.336 31.5629L110.843 30.4929ZM114.655 30.0326L116.404 30.8615L111.178 41.8941C110.808 42.6749 110.474 43.1186 109.882 43.2099C109.304 43.308 108.72 43.0843 107.953 42.7212C108.143 42.2091 108.338 41.3103 108.326 40.738C108.66 40.9313 109.021 41.1025 109.173 41.1566C109.303 41.2182 109.367 41.1954 109.442 41.0363L114.655 30.0326ZM105.285 25.5939L109.854 27.7584L107.587 32.5446L103.018 30.38L103.573 29.2087L106.508 30.5993L107.665 28.1556L104.73 26.7651L105.285 25.5939ZM115.667 30.5121L115.112 31.6834L111.859 30.1421L110.701 32.5858L113.954 34.127L113.4 35.2982L108.498 32.9761L110.765 28.19L115.667 30.5121ZM104.36 25.1555L106.08 25.9706L99.9496 38.9119L98.2289 38.0967L104.36 25.1555ZM108.495 33.5058L109.912 34.1771C109.847 35.1733 110.3 36.273 110.968 37.0676C110.533 37.1269 109.814 37.3354 109.439 37.5295C108.803 36.5553 108.405 35.3399 108.468 34.2722L108.193 34.142L108.495 33.5058ZM105.436 32.3755L106.63 33.3307C105.751 34.065 104.532 34.6206 103.411 34.7446C103.288 34.3678 103.018 33.7795 102.818 33.4546C103.804 33.3907 104.811 32.947 105.436 32.3755Z" fill="white"/>
</svg>
